<svg id="Logo_Light" data-name="Logo/Light" xmlns="http://www.w3.org/2000/svg" width="158" height="52" viewBox="0 0 158 52">
  <g id="logo-light" transform="translate(0 0)">
    <path id="Arabic_Word" data-name="Arabic Word" d="M78.676,19.19a1.526,1.526,0,0,1-.392-1.046A1.686,1.686,0,0,1,78.676,17a1.332,1.332,0,0,1,1.051-.45,1.548,1.548,0,0,1,1.587,1.6,1.413,1.413,0,0,1-.456,1.046,1.572,1.572,0,0,1-1.131.441A1.345,1.345,0,0,1,78.676,19.19Zm-3.388,0a1.472,1.472,0,0,1-.419-1.046A1.62,1.62,0,0,1,75.289,17a1.353,1.353,0,0,1,1.024-.45,1.464,1.464,0,0,1,1.1.45,1.6,1.6,0,0,1,.429,1.147,1.454,1.454,0,0,1-.429,1.046,1.479,1.479,0,0,1-1.1.441A1.365,1.365,0,0,1,75.289,19.19Zm15.531-.036a1.459,1.459,0,0,1-.429-1.047,1.612,1.612,0,0,1,.429-1.137,1.433,1.433,0,0,1,1.087-.458,1.386,1.386,0,0,1,1.05.458,1.609,1.609,0,0,1,.43,1.137,1.455,1.455,0,0,1-.43,1.047,1.414,1.414,0,0,1-1.05.44A1.463,1.463,0,0,1,90.82,19.154ZM84.091,6.678a2.318,2.318,0,0,1,.279-1.257A2.651,2.651,0,0,1,85.3,4.67a3.289,3.289,0,0,1,1.133-.339v8.256h3.233a2.565,2.565,0,0,0,1.022-.22,3.323,3.323,0,0,0,.932-.6,4.531,4.531,0,0,0,.629-1.028,2.74,2.74,0,0,0,.21-1.081V6.715A2.051,2.051,0,0,1,93.77,4.642a4.126,4.126,0,0,1,1.149-.257V9.651a5.319,5.319,0,0,1-.41,2.064,5.1,5.1,0,0,1-4.848,3.128H86.429v1.266a2.463,2.463,0,0,1-.164.9,1.876,1.876,0,0,1-.457.7,2.537,2.537,0,0,1-.72.5,2.761,2.761,0,0,1-1,.23Zm-56.225,0a2.253,2.253,0,0,1,.272-1.251,2.728,2.728,0,0,1,.933-.758A3.282,3.282,0,0,1,30.2,4.33v8.256h5.643a2.905,2.905,0,0,0-.329-.852,3.319,3.319,0,0,0-.558-.725,2.543,2.543,0,0,0-.721-.5,1.965,1.965,0,0,0-.821-.183,2.458,2.458,0,0,0-.347.026,3.555,3.555,0,0,0-.639.212l-.024-.256c-.012-.135-.023-.246-.031-.332a8.747,8.747,0,0,1,0-.991c.023-.177.054-.356.091-.532a8.061,8.061,0,0,1,.558-1.413,4.616,4.616,0,0,1,.831-1.155,5.1,5.1,0,0,1,1.662-1.083,5.449,5.449,0,0,1,2.063-.385h2.137a5.471,5.471,0,0,1,2.054.385,4.868,4.868,0,0,1,1.652,1.083,4.819,4.819,0,0,1,.867,1.183,7.213,7.213,0,0,1,.539,1.367c.036.166.066.343.092.542a9.682,9.682,0,0,1,0,1c-.01.106-.024.248-.04.428v.006l-.014.153a3.683,3.683,0,0,0-.631-.2,2.108,2.108,0,0,0-.356-.036,2.032,2.032,0,0,0-.831.183,2.763,2.763,0,0,0-.748.5,3.05,3.05,0,0,0-.576.725,2.544,2.544,0,0,0-.311.852h7.469V2.953a2.269,2.269,0,0,1,.657-1.669V1.3a1.678,1.678,0,0,1,.612-.431A3.083,3.083,0,0,1,51.221.661V14.842H30.2v1.266a2.476,2.476,0,0,1-.164.9,1.888,1.888,0,0,1-.456.7,2.529,2.529,0,0,1-.722.5,2.754,2.754,0,0,1-1,.23Zm8.089.562a2.936,2.936,0,0,0-.948,1.035,4.507,4.507,0,0,1,1.187.77,5.415,5.415,0,0,1,.913,1.064,6.151,6.151,0,0,1,.621,1.229,5.522,5.522,0,0,1,.311,1.248h1.168a5.5,5.5,0,0,1,.311-1.248,6.167,6.167,0,0,1,.622-1.229,5.385,5.385,0,0,1,.913-1.064,4.485,4.485,0,0,1,1.187-.77,2.94,2.94,0,0,0-.948-1.035,4.034,4.034,0,0,0-2.371-.574h-.591A4.036,4.036,0,0,0,35.955,7.24Zm23.558,7.6a4.167,4.167,0,0,1,.254-1.01,1.785,1.785,0,0,1,.458-.642,2.453,2.453,0,0,1,.648-.43,2.165,2.165,0,0,1,.922-.175h4.419a2.7,2.7,0,0,0,1.078-.22,2.894,2.894,0,0,0,.913-.624v.019a4.956,4.956,0,0,0,.666-.991,2.424,2.424,0,0,0,.246-1.1,2.458,2.458,0,0,0-.227-1.045,3.4,3.4,0,0,0-.63-.918,3.283,3.283,0,0,0-.959-.652,2.669,2.669,0,0,0-1.086-.23H63.256A2.166,2.166,0,0,1,61.649,6.2a1.894,1.894,0,0,1-.439-.679,5.079,5.079,0,0,1-.237-1.1h5.241a5.022,5.022,0,0,1,2.045.395,5.363,5.363,0,0,1,1.047.611c.2.146.542.48.542.48a5.5,5.5,0,0,1,.492.545A5.057,5.057,0,0,1,71.4,9.669a5.157,5.157,0,0,1-.2,1.467,5.5,5.5,0,0,1-.712,1.45h5.534a2.558,2.558,0,0,0,1.021-.22,3.292,3.292,0,0,0,.932-.605,4.618,4.618,0,0,0,.63-1.027,2.769,2.769,0,0,0,.21-1.082V6.715a2.052,2.052,0,0,1,1.315-2.073,4.175,4.175,0,0,1,1.151-.257V9.651a5.327,5.327,0,0,1-.411,2.064,5.1,5.1,0,0,1-4.848,3.128H59.513Zm-4.776-.184a1.775,1.775,0,0,1-.721-.421,2.555,2.555,0,0,1-.465-.7,2.22,2.22,0,0,1-.174-.918V.661a4.335,4.335,0,0,1,1.087.183,1.791,1.791,0,0,1,.721.422,2.286,2.286,0,0,1,.639,1.687V14.842A4.284,4.284,0,0,1,54.737,14.658Zm-30.186,0a1.769,1.769,0,0,1-.721-.421,2.573,2.573,0,0,1-.466-.7,2.221,2.221,0,0,1-.172-.918V.661a4.32,4.32,0,0,1,1.086.183A1.8,1.8,0,0,1,25,1.266a2.288,2.288,0,0,1,.639,1.687V14.842A4.3,4.3,0,0,1,24.551,14.658Zm-3.315.184H5.259a5.721,5.721,0,0,1-2.036-.358,5.242,5.242,0,0,1-1.708-1.073A4.8,4.8,0,0,1,.375,11.668,5.746,5.746,0,0,1,0,9.632V4.367a3.446,3.446,0,0,1,1.1.256,1.9,1.9,0,0,1,.711.514,2.493,2.493,0,0,1,.421.7,2.321,2.321,0,0,1,.165.881V9.632A2.538,2.538,0,0,0,2.63,10.76a4.437,4.437,0,0,0,.675.982v-.018a2.972,2.972,0,0,0,.931.66,2.536,2.536,0,0,0,1.005.2h6.391a7.578,7.578,0,0,1-.648-1.468,4.862,4.862,0,0,1-.246-1.485,5.209,5.209,0,0,1,.383-2.019,6.022,6.022,0,0,1,1.1-1.706,6.293,6.293,0,0,1,1.708-1.091A5.244,5.244,0,0,1,16,4.421a4.937,4.937,0,0,1,1.946.385,6.84,6.84,0,0,1,1.725,1.082,5.667,5.667,0,0,1,1.168,1.734,5.1,5.1,0,0,1,.4,2.009v5.21h0Zm-6.344-7.87a3.7,3.7,0,0,0-.959.671,3.8,3.8,0,0,0-.622.925,2.4,2.4,0,0,0-.238,1.046,2.438,2.438,0,0,0,.265,1.073l.036.077a3.454,3.454,0,0,0,.576.922,3.088,3.088,0,0,0,.888.595l.08.039A2.389,2.389,0,0,0,16,12.586h2.85V9.613a2.475,2.475,0,0,0-.238-1.082,4,4,0,0,0-.675-.972,2.811,2.811,0,0,0-.913-.675A2.95,2.95,0,0,0,16,6.7,2.4,2.4,0,0,0,14.892,6.972Zm1.688-4.4a1.536,1.536,0,0,1-.419-1.1A1.41,1.41,0,0,1,16.58.393,1.473,1.473,0,0,1,17.622,0a1.622,1.622,0,0,1,1.1.393,1.367,1.367,0,0,1,.447,1.075,1.486,1.486,0,0,1-.447,1.1,1.523,1.523,0,0,1-1.1.44A1.391,1.391,0,0,1,16.58,2.568Zm-3.442,0a1.488,1.488,0,0,1-.447-1.1A1.369,1.369,0,0,1,13.138.393,1.675,1.675,0,0,1,14.279,0,1.513,1.513,0,0,1,15.32.393a1.38,1.38,0,0,1,.439,1.075,1.5,1.5,0,0,1-.439,1.1,1.428,1.428,0,0,1-1.041.44A1.571,1.571,0,0,1,13.138,2.568Z" transform="translate(0 5.084)" fill="#4a4a49"/>
    <path id="English_Word" data-name="English Word" d="M42.185,15.2H39.358l-2.194-1.8a7.359,7.359,0,0,1-2.37.367c-.243,0-.493-.01-.746-.03a5.442,5.442,0,0,1-3.523-1.717,6.515,6.515,0,0,1-1.7-3.8,9.649,9.649,0,0,1,.292-3.827A5.923,5.923,0,0,1,35.031,0a7.994,7.994,0,0,1,.859.047,5.727,5.727,0,0,1,2.933,1.184A5.89,5.89,0,0,1,40.68,3.781a10.22,10.22,0,0,1,.227,5.325,5.965,5.965,0,0,1-2.2,3.487L42.186,15.2h0ZM31.012,3.948a6.936,6.936,0,0,0-.561,4.091,5.04,5.04,0,0,0,1.412,3.087,4.272,4.272,0,0,0,2.94,1.229l.172,0c2.383,0,3.958-1.411,4.436-3.973a10.29,10.29,0,0,0,.157-1.437,6.861,6.861,0,0,0-.31-2.233A4.7,4.7,0,0,0,37.9,2.44a3.873,3.873,0,0,0-2.281-.962c-.189-.017-.376-.026-.557-.026A4.316,4.316,0,0,0,31.012,3.948Zm45.6,9s0-1.21,0-1.724a6.554,6.554,0,0,0,4.3,1.057,2.028,2.028,0,0,0,1.943-1.392,2,2,0,0,0-1.005-2.4C80.782,7.8,79.63,7.251,78.543,6.59a3.386,3.386,0,0,1-1.884-2.878A3.082,3.082,0,0,1,78.446.648,6.714,6.714,0,0,1,84.02.582s-.006,1.107-.006,1.617a5.866,5.866,0,0,0-3.529-.738c-1.437.135-2.269.947-2.207,2.123a1.892,1.892,0,0,0,.976,1.565c.746.456,1.523.86,2.289,1.28a8.2,8.2,0,0,1,2.02,1.405,3.293,3.293,0,0,1-1.174,5.5,7.046,7.046,0,0,1-2.489.426A8.705,8.705,0,0,1,76.616,12.945Zm-9.093.789A5.442,5.442,0,0,1,64,12.017a6.515,6.515,0,0,1-1.7-3.8,9.647,9.647,0,0,1,.291-3.827A5.923,5.923,0,0,1,68.506,0a7.994,7.994,0,0,1,.859.047A5.729,5.729,0,0,1,72.3,1.232a5.89,5.89,0,0,1,1.858,2.549,10.238,10.238,0,0,1,.226,5.325,5.968,5.968,0,0,1-2.2,3.487,5.642,5.642,0,0,1-1.546.8,7.358,7.358,0,0,1-2.371.367C68.026,13.764,67.775,13.754,67.523,13.734ZM64.489,3.948a6.925,6.925,0,0,0-.563,4.091,5.04,5.04,0,0,0,1.412,3.087,4.273,4.273,0,0,0,2.94,1.229l.172,0c2.383,0,3.958-1.411,4.436-3.973a10.291,10.291,0,0,0,.157-1.437,6.848,6.848,0,0,0-.31-2.233A4.7,4.7,0,0,0,71.375,2.44a3.87,3.87,0,0,0-2.28-.962c-.189-.017-.376-.026-.557-.026A4.312,4.312,0,0,0,64.489,3.948ZM17.714,13.531H15.952L21.047.244h1.613l5.077,13.285h-1.83L24.593,9.681H19.016l-1.3,3.849h0ZM19.564,8.35l4.464-.008L21.782,2.014ZM7.184,13.53H5.639V.245H9.106a6.789,6.789,0,0,1,1.985.262,3.959,3.959,0,0,1,1.4.735,2.991,2.991,0,0,1,.829,1.116,3.587,3.587,0,0,1,.273,1.41,4.777,4.777,0,0,1-.039.584,3.287,3.287,0,0,1-1.07,1.95,4.1,4.1,0,0,1-1.833,1.007l0,0a4.156,4.156,0,0,1,1.5,1.406c.786,1.248,2.881,4.694,2.9,4.729l-1.9-.013A41.6,41.6,0,0,0,10.441,8.9,2.647,2.647,0,0,0,9.38,8.1,2.336,2.336,0,0,0,8.3,7.853H7.185v5.676h0Zm0-7.03H9.119a3.733,3.733,0,0,0,1.192-.179,2.536,2.536,0,0,0,.892-.5,2.19,2.19,0,0,0,.557-.78,2.539,2.539,0,0,0,.194-1,2.358,2.358,0,0,0-.211-1.011,2.193,2.193,0,0,0-.606-.769,2.74,2.74,0,0,0-.953-.49A4.392,4.392,0,0,0,8.924,1.6H7.185ZM0,13.53V.245H1.494V13.53Zm89.679-.015V1.595H85.911V.243h8.924V1.595H91.069V13.514ZM54,13.509H52.61V.243h3.472a6.859,6.859,0,0,1,2.145.291,3.559,3.559,0,0,1,1.393.808,3,3,0,0,1,.756,1.225A4.991,4.991,0,0,1,60.6,4.1a4.623,4.623,0,0,1-.356,1.865,3.861,3.861,0,0,1-.989,1.365,4.3,4.3,0,0,1-1.493.836,6.034,6.034,0,0,1-1.874.281H54v5.061h0Zm0-6.442h2.069a4,4,0,0,0,1.23-.176,2.541,2.541,0,0,0,.921-.517,2.19,2.19,0,0,0,.574-.839,3.137,3.137,0,0,0,.2-1.144,4.183,4.183,0,0,0-.144-1.13,2.023,2.023,0,0,0-.495-.875,2.334,2.334,0,0,0-.948-.563,4.761,4.761,0,0,0-1.49-.2H54Z" transform="translate(0 31.501)" fill="#4a4a49"/>
    <path id="Separator" d="M.142,51.787H.694V0H.142Z" transform="translate(102.381)" fill="#fab900"/>
    <path id="Shape" d="M6,16.645l19.485,2.967L24.252,38.083ZM26.673,26.706,47.205,12.767,26.547,28.5ZM28.311,0l20.3,2.969L27.093,18.119ZM6.473,15.28,26.783.2l-1.19,17.78Zm-.74-6.929L0,5.783,5.451,2.661l8.905,4.6L5.451,14.019Z" transform="translate(109.388 6.851)" fill="#2b3f79"/>
    <path id="Fill_2" data-name="Fill 2" d="M21.386,0,.128,14.021,0,16.144Z" transform="translate(136.332 12.746)" fill="#cc171a"/>
    <path id="Fill_3" data-name="Fill 3" d="M20.794,0,.121,13.6,0,15.44Z" transform="translate(136.17 16.651)" fill="#25632c"/>
    <path id="Path" d="M1,2a1,1,0,1,1,1-1A1,1,0,0,1,1,2Z" transform="translate(112.71 11.148)" fill="#fab900"/>
  </g>
</svg>
